<svg id="Capa_1" enable-background="new 0 0 512 512" height="512" viewBox="0 0 512 512" width="512" xmlns="http://www.w3.org/2000/svg"><g><path d="m255.999 154.415c42.572 0 77.207-34.636 77.207-77.208s-34.635-77.207-77.207-77.207c-42.571 0-77.205 34.635-77.205 77.207s34.633 77.208 77.205 77.208z"/><path d="m415.6 432.733v-64.267c0-17.13-13.938-31.066-31.066-31.066h-257.067c-17.131 0-31.066 13.937-31.066 31.066v64.267c0 17.13 13.936 31.066 31.066 31.066h257.066c17.13.001 31.067-13.936 31.067-31.066z"/><path d="m489.669 448.8 20.748-41.491c2.324-4.65 2.076-10.173-.656-14.595-2.733-4.423-7.562-7.114-12.76-7.114h-51.4v47.134c0 32.392-25.355 58.962-57.259 60.936 4.873 10.794 15.731 18.33 28.325 18.33h80.334c5.198 0 10.026-2.691 12.76-7.114 2.732-4.422 2.98-9.944.656-14.595z"/><path d="m66.401 432.733v-47.133h-51.4c-5.199 0-10.027 2.691-12.76 7.114-2.733 4.422-2.982 9.944-.657 14.594l20.745 41.492-20.745 41.492c-2.325 4.649-2.076 10.172.657 14.594 2.732 4.423 7.56 7.114 12.76 7.114h80.332c12.594 0 23.453-7.536 28.326-18.331-31.904-1.974-57.258-28.544-57.258-60.936z"/><path d="m176.733 208.046v99.354h158.533v-99.354l98.66-98.663c8.904-8.902 13.807-20.738 13.807-33.328s-4.902-24.426-13.805-33.326c-8.902-8.904-20.739-13.808-33.328-13.808-12.59 0-24.426 4.903-33.328 13.807l-7.506 7.506c2.243 8.621 3.439 17.66 3.439 26.974 0 59.115-48.094 107.208-107.207 107.208s-107.205-48.093-107.205-107.208c0-9.314 1.195-18.354 3.438-26.975l-7.503-7.504c-8.902-8.904-20.739-13.808-33.33-13.808-12.59 0-24.426 4.903-33.328 13.807-8.902 8.902-13.805 20.738-13.805 33.327-.001 12.59 4.902 24.426 13.805 33.327z"/></g></svg>