<?xml version="1.0"?>
<svg xmlns="http://www.w3.org/2000/svg" id="Capa_1" enable-background="new 0 0 512.001 512.001" height="512px" viewBox="0 0 512.001 512.001" width="512px"><path d="m121.493 93.376 24.479-23.859c4.088-3.985 5.559-9.946 3.795-15.376-1.764-5.431-6.459-9.388-12.109-10.209l-33.826-4.916-15.134-30.655c-2.525-5.12-7.74-8.361-13.451-8.361-5.709.001-10.924 3.242-13.449 8.362l-15.127 30.654-33.828 4.916c-5.649.82-10.344 4.778-12.108 10.209-1.766 5.43-.293 11.391 3.795 15.376l24.479 23.859-5.781 33.691c-.965 5.628 1.35 11.315 5.969 14.671 2.613 1.899 5.707 2.865 8.818 2.865 2.387 0 4.783-.569 6.979-1.724l30.256-15.908 30.26 15.909c2.195 1.153 4.592 1.723 6.979 1.723h.051c8.271-.016 14.971-6.726 14.971-15 0-1.151-.129-2.273-.375-3.351z" fill="#FFFFFF"/><path d="m511.266 54.141c-1.764-5.431-6.459-9.388-12.109-10.209l-33.826-4.916-15.133-30.655c-2.525-5.12-7.74-8.36-13.451-8.36-5.709.001-10.924 3.242-13.449 8.362l-15.127 30.653-33.828 4.916c-5.648.82-10.344 4.778-12.107 10.209-1.766 5.43-.293 11.391 3.795 15.376l24.478 23.859-5.781 33.691c-.965 5.628 1.35 11.315 5.969 14.671 2.613 1.899 5.707 2.865 8.818 2.865 2.387 0 4.783-.569 6.978-1.724l30.256-15.908 30.26 15.909c2.195 1.153 4.592 1.723 6.979 1.723h.051c8.272-.016 14.971-6.726 14.971-15 0-1.151-.129-2.273-.375-3.351l-5.641-32.877 24.479-23.859c4.086-3.984 5.557-9.945 3.793-15.375z" fill="#FFFFFF"/><path d="m209.759 93.377-5.781 33.69c-.965 5.627 1.35 11.315 5.969 14.671 4.619 3.357 10.742 3.799 15.797 1.142l30.258-15.908 30.258 15.908c2.195 1.154 4.592 1.724 6.979 1.724h.047c8.273-.013 14.975-6.724 14.975-15 0-1.151-.129-2.273-.375-3.351l-5.641-32.877 24.477-23.859c4.088-3.985 5.559-9.946 3.795-15.377-1.764-5.43-6.459-9.387-12.109-10.208l-33.822-4.916-15.134-30.654c-2.527-5.12-7.742-8.362-13.451-8.362-5.711 0-10.926 3.242-13.451 8.362l-15.127 30.653-33.83 4.916c-5.65.82-10.346 4.778-12.109 10.209-1.766 5.43-.293 11.392 3.795 15.376z" fill="#FFFFFF"/><path d="m144.6 448.8v8.033c0 30.419 24.748 55.167 55.166 55.167h41.234v-73.053l-66.262-66.263c-18.679 19.932-30.138 46.709-30.138 76.116z" fill="#FFFFFF"/><path d="m271.001 438.947v73.053h41.232c30.418 0 55.166-24.748 55.166-55.167v-8.033c0-29.406-11.459-56.183-30.139-76.113z" fill="#FFFFFF"/><path d="m256.001 207.8c-39.867 0-72.301 32.434-72.301 72.3 0 39.867 32.434 72.301 72.301 72.301 39.865 0 72.299-32.434 72.299-72.301 0-39.866-32.434-72.3-72.299-72.3z" fill="#FFFFFF"/><path d="m220.542 376.061 35.459 35.46 35.461-35.461z" fill="#FFFFFF"/></svg>
