<?xml version="1.0"?>
<svg xmlns="http://www.w3.org/2000/svg" id="Capa_1" enable-background="new 0 0 512 512" height="512px" viewBox="0 0 512 512" width="512px"><g><path d="m316 0-10.605 10.605c-10.693 10.693-28.096 10.693-38.789 0l-10.606-10.605-10.605 10.605c-10.693 10.693-28.096 10.693-38.789 0l-10.606-10.605-10.605 10.605c-30.597 30.597-40.604 55.818-6.958 95.446 24.011-9.582 50.116-15.007 77.505-15.007 27.429 0 53.575 5.435 77.618 15.035 33.695-39.591 23.687-64.832-6.954-95.473z" fill="#0167F9"/><path d="m466 436c0-31.567-7.661-48.677-15.088-65.215-7.661-17.124-14.912-33.296-14.912-69.785 0-96.68-78.409-179.96-180.059-179.96-98.574 0-179.941 79.43-179.941 179.96 0 36.387-7.266 52.617-14.941 69.814-7.413 16.539-15.059 33.663-15.059 65.186 0 44.194 55.342 76 105 76h210c49.658 0 105-31.806 105-76zm-210-135c24.814 0 45 20.186 45 45 0 19.53-12.578 36.024-30 42.237v32.763h-30v-32.763c-17.422-6.213-30-22.707-30-42.237h30c0 8.276 6.724 15 15 15s15-6.724 15-15-6.724-15-15-15c-24.814 0-45-20.186-45-45 0-19.53 12.578-36.024 30-42.237v-32.763h30v32.763c17.422 6.213 30 22.707 30 42.237h-30c0-8.276-6.724-15-15-15s-15 6.724-15 15 6.724 15 15 15z" fill="#0167F9"/></g></svg>
