<?xml version="1.0" encoding="iso-8859-1"?>
<!-- Generator: Adobe Illustrator 19.0.0, SVG Export Plug-In . SVG Version: 6.00 Build 0)  -->
<svg xmlns="http://www.w3.org/2000/svg" xmlns:xlink="http://www.w3.org/1999/xlink" version="1.1" id="Capa_1" x="0px" y="0px" viewBox="0 0 512 512" style="enable-background:new 0 0 512 512;" xml:space="preserve" width="512px" height="512px">
<g>
	<g>
		<path d="M437,0H75C50.186,0,30,20.186,30,45v167h55.193c10.226-13.248,19.827-14.98,35.129-19.072    c5.156-1.377,9.229-5.449,10.605-10.605c12.175-45.526,37.398-49.97,70.478-41.122c5.186,1.333,10.723-0.103,14.487-3.882    c33.014-33.014,55.292-24.922,80.215,0c3.75,3.779,9.229,5.2,14.502,3.882c44.568-11.935,61.359,7.079,70.463,41.122    c1.377,5.156,5.449,9.229,10.605,10.605c15.302,4.092,24.902,5.825,35.129,19.072H482V45C482,20.186,461.814,0,437,0z     M176.605,116.605c-5.859,5.859-15.352,5.859-21.211,0l-31-31c-5.859-5.859-5.859-15.352,0-21.211s16.352-5.859,22.211,0l30,30    C182.465,100.254,182.465,110.746,176.605,116.605z M271,75c0,8.291-6.709,15-15,15c-8.291,0-15-6.709-15-15V45    c0-8.291,6.709-15,15-15s15,6.709,15,15V75z M387.605,85.605l-30,31c-5.859,5.859-16.352,5.859-22.211,0s-5.859-16.352,0-22.211    l31-30c5.859-5.859,15.352-5.859,21.211,0S393.465,79.746,387.605,85.605z" fill="#0167F9"/>
	</g>
</g>
<g>
	<g>
		<path d="M15,422c-5.136,0-10.151,0.529-15,1.518C0,439.481,0,451.372,0,467c0,24.814,20.186,45,45,45c14.553,0,28.947,0,43.482,0    c0.989-4.849,1.518-9.864,1.518-15C90,455.647,56.353,422,15,422z" fill="#0167F9"/>
	</g>
</g>
<g>
	<g>
		<path d="M422,332L422,332h-92.514c-6.956,34.219-37.224,60-73.486,60c-36.262,0-66.53-25.781-73.486-60H90v91.749    c18.499,18.939,30,44.753,30,73.251c0,5.136-0.8,10.058-1.516,15c91.19,0,184.17,0,275.032,0c-0.716-4.942-1.516-9.864-1.516-15    c0-28.499,11.501-54.313,30-73.251V332z" fill="#0167F9"/>
	</g>
</g>
<g>
	<g>
		<path d="M497,422c-41.353,0-75,33.647-75,75c0,5.136,0.529,10.151,1.518,15c14.471,0,29.009,0,43.482,0c24.814,0,45-20.186,45-45    c0-15.597,0-27.55,0-43.482C507.151,422.529,502.136,422,497,422z" fill="#0167F9"/>
	</g>
</g>
<g>
	<g>
		<path d="M467,242c-85.177,0-322.521,0-422,0c-24.814,0-45,20.186-45,45c0,51.962,0,85.193,0,106.516C4.942,392.8,9.864,392,15,392    c16.165,0,31.307,3.977,45,10.532V272h30v30h91v-30h30v45c0,24.899,20.099,45,45,45s45-20.101,45-45c0-15.964,0-29.296,0-45h30v30    h91v-30h30c0,73.762,0,57.081,0,130.532C465.693,395.977,480.835,392,497,392c5.136,0,10.058,0.8,15,1.516    c0-21.315,0-54.547,0-106.516C512,262.186,491.814,242,467,242z M255.854,332.293c-8.291,0-15.146-6.855-15.146-15.146    c0-8.291,6.855-15.147,15.146-15.147S271,308.855,271,317.146C271,325.437,264.145,332.293,255.854,332.293z" fill="#0167F9"/>
	</g>
</g>
<g>
</g>
<g>
</g>
<g>
</g>
<g>
</g>
<g>
</g>
<g>
</g>
<g>
</g>
<g>
</g>
<g>
</g>
<g>
</g>
<g>
</g>
<g>
</g>
<g>
</g>
<g>
</g>
<g>
</g>
</svg>
