<?xml version="1.0" encoding="iso-8859-1"?>
<!-- Generator: Adobe Illustrator 19.0.0, SVG Export Plug-In . SVG Version: 6.00 Build 0)  -->
<svg version="1.1" id="Capa_1" xmlns="http://www.w3.org/2000/svg" xmlns:xlink="http://www.w3.org/1999/xlink" x="0px" y="0px"
	 viewBox="0 0 512 512" style="enable-background:new 0 0 512 512;" xml:space="preserve">
<path style="fill:#3777D3;" d="M349.657,155.173l-46.689,319.549c-0.031,0.185-0.062,0.371-0.113,0.556
	c-0.093,0.36-0.227,0.7-0.391,1.03c-0.257,0.494-0.577,0.937-0.978,1.328c-0.134,0.134-0.268,0.257-0.412,0.371
	c-0.154,0.113-0.299,0.216-0.463,0.319l-19.853,12.347l-24.281,15.096c-0.834,0.525-1.781,0.782-2.729,0.782
	c-0.947,0-1.884-0.257-2.708-0.782l-20.265-12.604l-23.859-14.828c-1.287-0.803-2.162-2.131-2.379-3.625l-46.688-319.539
	c-0.206-1.431,0.196-2.893,1.122-4.016l71.804-86.92l19.019-23.025c2.018-2.43,5.725-2.482,7.816-0.124l90.926,110.069l0.021,0.031
	C349.472,152.31,349.863,153.752,349.657,155.173z"/>
<path style="fill:#2468BA;" d="M349.657,155.173l-46.689,319.549c-0.031,0.185-0.062,0.371-0.113,0.556
	c-0.093,0.36-0.227,0.7-0.391,1.03c-0.257,0.494-0.577,0.937-0.978,1.328c-0.134,0.134-0.268,0.257-0.412,0.371
	c-0.154,0.123-0.299,0.226-0.463,0.329l-19.853,12.336l40.005-337.755l-67.016-84.809v438.443c-0.947,0-1.884-0.257-2.708-0.782
	l-20.265-12.604V64.236l19.019-23.025c2.018-2.43,5.725-2.482,7.816-0.124l90.926,110.069l0.021,0.031
	C349.472,152.31,349.863,153.752,349.657,155.173z"/>
<g>
	<path style="fill:#D5F0F7;" d="M511.481,276.96l-99.555,204.486c-0.041,0.093-0.082,0.175-0.134,0.257
		c-0.051,0.082-0.113,0.165-0.165,0.247c-0.113,0.165-0.237,0.309-0.381,0.453c-0.175,0.185-0.381,0.35-0.597,0.495
		c-0.227,0.134-0.453,0.257-0.7,0.35c-0.124,0.041-0.247,0.082-0.381,0.113l-16.002,4.057l-18.669,4.737
		c-0.958,0.247-1.936,0.206-2.832-0.092c-0.896-0.278-1.709-0.803-2.348-1.555l-10.339-12.099v-0.01l-12.882-15.096
		c-0.69-0.813-0.988-1.884-0.824-2.935l36.885-224.422c0.237-1.431,1.071-2.698,2.296-3.491l66.377-42.765l16.177-10.421
		c1.359-0.875,2.945-1.019,4.346-0.577c1.38,0.433,2.574,1.442,3.182,2.894l36.69,91.204
		C512.171,274.139,512.119,275.652,511.481,276.96z"/>
	<path style="fill:#D5F0F7;" d="M160.082,468.029l-9.453,11.512l-11.513,14.015c-0.618,0.762-1.431,1.308-2.327,1.606
		c-0.896,0.309-1.864,0.36-2.822,0.144l-14.56-3.398v-0.011l-17.598-4.108c-1.483-0.35-2.729-1.318-3.419-2.677L0.564,293.457
		c-0.669-1.297-0.741-2.811-0.227-4.181l26.639-70.012l6.395-16.805c1.133-2.996,4.716-4.222,7.455-2.585l79.115,48.892
		c1.215,0.762,2.059,2.008,2.327,3.429l38.904,211.643C161.441,465.321,161.05,466.855,160.082,468.029z"/>
</g>
<g>
	<path style="fill:#A6DFE8;" d="M511.625,272.79l-36.69-91.204c-0.608-1.452-1.802-2.461-3.182-2.894
		c-1.4-0.443-2.986-0.299-4.346,0.577L451.23,189.69l-18.988,59.694l-72.865,229.014v0.01l10.339,12.099
		c0.638,0.752,1.452,1.277,2.348,1.555l75.634-237.757l18.165-57.089l26.186,69.436c0.484,1.277,0.443,2.698-0.124,3.944
		l-98.361,216.822v0.01l16.002-4.057c0.134-0.031,0.257-0.072,0.381-0.124c0.247-0.092,0.474-0.216,0.7-0.35
		c0.216-0.144,0.422-0.309,0.597-0.495c0.144-0.144,0.268-0.288,0.381-0.453c0.113-0.154,0.216-0.33,0.309-0.505l99.545-204.486
		C512.119,275.652,512.171,274.139,511.625,272.79z"/>
	<path style="fill:#A6DFE8;" d="M160.597,467.421l-9.968,12.12l-47.348-223.299l-60.868-39.46l18.278,53.897l76.098,224.484
		c-0.896,0.309-1.864,0.36-2.822,0.144l-14.56-3.398v-0.011L46.089,275.632l-19.112-56.368l6.395-16.805
		c1.133-2.996,4.716-4.222,7.455-2.585l79.115,48.892c1.215,0.762,2.059,2.008,2.327,3.429l38.904,211.643l0.144,0.772
		C161.492,465.609,161.235,466.639,160.597,467.421z"/>
</g>
<g>
	<path style="fill:#FFDBA9;" d="M379.721,52.697h-16.277V36.42c0-4.266-3.458-7.723-7.723-7.723s-7.723,3.457-7.723,7.723v16.277
		h-16.277c-4.265,0-7.723,3.457-7.723,7.723s3.458,7.723,7.723,7.723h16.277V84.42c0,4.266,3.458,7.723,7.723,7.723
		s7.723-3.457,7.723-7.723V68.143h16.277c4.265,0,7.723-3.457,7.723-7.723S383.986,52.697,379.721,52.697z"/>
	<path style="fill:#FFDBA9;" d="M115.586,155.387H99.309V139.11c0-4.266-3.458-7.723-7.723-7.723s-7.723,3.457-7.723,7.723v16.277
		H67.586c-4.265,0-7.723,3.457-7.723,7.723s3.458,7.723,7.723,7.723h16.277v16.277c0,4.266,3.458,7.723,7.723,7.723
		s7.723-3.457,7.723-7.723v-16.277h16.277c4.265,0,7.723-3.457,7.723-7.723C123.309,158.844,119.851,155.387,115.586,155.387z"/>
	<path style="fill:#FFDBA9;" d="M420.328,117.304h-4.277v-4.277c0-4.266-3.458-7.723-7.723-7.723s-7.723,3.457-7.723,7.723v4.277
		h-4.277c-4.265,0-7.723,3.457-7.723,7.723c0,4.266,3.458,7.723,7.723,7.723h4.277v4.277c0,4.266,3.458,7.723,7.723,7.723
		s7.723-3.457,7.723-7.723v-4.277h4.277c4.265,0,7.723-3.457,7.723-7.723S424.593,117.304,420.328,117.304z"/>
	<path style="fill:#FFDBA9;" d="M172.258,58.196h-7.017v-7.017c0-4.266-3.458-7.723-7.723-7.723c-4.265,0-7.723,3.457-7.723,7.723
		v7.017h-7.017c-4.265,0-7.723,3.457-7.723,7.723s3.458,7.723,7.723,7.723h7.017v7.016c0,4.266,3.458,7.723,7.723,7.723
		c4.265,0,7.723-3.457,7.723-7.723v-7.016h7.017c4.265,0,7.723-3.457,7.723-7.723S176.523,58.196,172.258,58.196z"/>
	<path style="fill:#FFDBA9;" d="M65.808,26.202c0-4.266-3.458-7.723-7.723-7.723h-4.277v-4.277c0-4.266-3.458-7.723-7.723-7.723
		s-7.723,3.457-7.723,7.723v4.277h-4.277c-4.265,0-7.723,3.457-7.723,7.723s3.458,7.723,7.723,7.723h4.277v4.276
		c0,4.266,3.458,7.723,7.723,7.723s7.723-3.457,7.723-7.723v-4.277h4.277C62.35,33.925,65.808,30.467,65.808,26.202z"/>
	<path style="fill:#FFDBA9;" d="M485.512,18.478h-5.304v-5.305c0-4.266-3.458-7.723-7.723-7.723s-7.723,3.457-7.723,7.723v5.305
		h-5.304c-4.265,0-7.723,3.457-7.723,7.723s3.458,7.723,7.723,7.723h5.304v5.304c0,4.266,3.458,7.723,7.723,7.723
		s7.723-3.457,7.723-7.723v-5.304h5.304c4.265,0,7.723-3.457,7.723-7.723S489.777,18.478,485.512,18.478z"/>
</g>
<g>
</g>
<g>
</g>
<g>
</g>
<g>
</g>
<g>
</g>
<g>
</g>
<g>
</g>
<g>
</g>
<g>
</g>
<g>
</g>
<g>
</g>
<g>
</g>
<g>
</g>
<g>
</g>
<g>
</g>
</svg>
