<svg height="512" viewBox="0 0 512 512" width="512" xmlns="http://www.w3.org/2000/svg"><g id="solid"><path d="m381.671 279.718-7.966 9.957a30.148 30.148 0 1 1 -46.432-38.453 54.832 54.832 0 0 0 4.1-66.164 38.68 38.68 0 0 1 -35.373 22.942 8 8 0 0 1 -8-8v-21.591a98.814 98.814 0 0 0 -18.51-57.759 114.732 114.732 0 0 1 -21.49-67.059v-14.643l-21.761 14.507a45.78 45.78 0 0 0 -16.477 56.813 61.529 61.529 0 0 1 -8.84 64.545l-64.764 78.4a138.55 138.55 0 0 0 106.817 226.787h16.325a137.647 137.647 0 0 0 97.97-40.58l2.017-2.018a131.672 131.672 0 0 0 33.154-130.766zm-60.844 159.257-.078.078a82.238 82.238 0 0 1 -57.9 24.447l-23.118.228q-.408 0-.815 0a82.738 82.738 0 0 1 -82.744-82.728v-9.08a82.334 82.334 0 0 1 31.052-64.607l32.976-26.378a49.289 49.289 0 0 0 18.209-33.862l5.8-63.8a8 8 0 0 1 15.123-2.854l37.717 75.435a70.507 70.507 0 0 1 -8.9 76.67 15.654 15.654 0 0 0 23.1 21.091l23.274-23.275a8 8 0 0 1 13.349 3.459 107.533 107.533 0 0 1 -27.045 105.176z"/><path d="m322.555 364.931a31.654 31.654 0 0 1 -46.7-42.647 54.508 54.508 0 0 0 6.88-59.271l-25.141-50.282-3.254 35.79a65.371 65.371 0 0 1 -24.148 44.908l-32.973 26.379a66.411 66.411 0 0 0 -25.047 52.112v9.08a66.739 66.739 0 0 0 67.4 66.734l23.118-.228a66.34 66.34 0 0 0 46.71-19.73l.022-.022.071-.071a91.509 91.509 0 0 0 25.823-75.511z"/><path d="m112 168v16a8 8 0 0 0 16 0v-16a8 8 0 0 0 -16 0z"/><path d="m144 152a8 8 0 0 0 8-8v-16a8 8 0 0 0 -16 0v16a8 8 0 0 0 8 8z"/><path d="m112 120a8 8 0 0 0 8-8v-16a8 8 0 0 0 -16 0v16a8 8 0 0 0 8 8z"/><path d="m392 184a8 8 0 0 0 -8 8v16a8 8 0 0 0 16 0v-16a8 8 0 0 0 -8-8z"/><path d="m368 160a8 8 0 0 0 8-8v-16a8 8 0 0 0 -16 0v16a8 8 0 0 0 8 8z"/><path d="m400 96a8 8 0 0 0 -8 8v24a8 8 0 0 0 16 0v-24a8 8 0 0 0 -8-8z"/></g></svg>