<?xml version="1.0" encoding="iso-8859-1"?>
<!-- Generator: Adobe Illustrator 19.0.0, SVG Export Plug-In . SVG Version: 6.00 Build 0)  -->
<svg version="1.1" id="Capa_1" xmlns="http://www.w3.org/2000/svg" xmlns:xlink="http://www.w3.org/1999/xlink" x="0px" y="0px"
	 viewBox="0 0 512.001 512.001" style="enable-background:new 0 0 512.001 512.001;" xml:space="preserve">
<path style="fill:#B7C1CA;" d="M487.134,31.681c-0.004-2.257-1.469-4.238-3.622-4.914C426.655,8.922,341.327,0,255.998,0l0,0
	C170.67,0,85.341,8.922,28.485,26.767c-2.153,0.676-3.618,2.657-3.622,4.914c-0.259,136.169-14.017,282.041,82.873,397.273
	c36.438,43.336,87.603,76.471,148.26,83.047h0.005c60.657-6.576,111.822-39.71,148.26-83.047
	C501.151,313.722,487.393,167.85,487.134,31.681z"/>
<path style="fill:#A3AEB7;" d="M404.26,428.953c-18.219,21.667-40.123,40.784-65.052,55.308s-52.882,24.454-83.209,27.736
	c-22.595-2.446-43.868-8.577-63.563-17.557c63.038,28.743,145.09-30.549,183.366-76.067c96.897-115.23,83.137-261.107,82.879-397.27
	c0-0.403-0.052-0.805-0.145-1.187c8.815,2.116,17.166,4.397,24.98,6.854c2.147,0.671,3.613,2.653,3.623,4.914
	C487.397,167.846,501.146,313.723,404.26,428.953z"/>
<path style="fill:#FF4F19;" d="M435.351,82.787c-0.005-2.261-1.473-4.247-3.633-4.917C387.602,64.194,321.8,57.356,255.998,57.356
	l0,0c-65.802,0-131.604,6.838-175.72,20.514c-2.16,0.67-3.627,2.656-3.633,4.917c-0.255,105.418-10.673,218.242,64.307,307.417
	c28.274,33.627,67.976,59.338,115.043,64.44H256c47.067-5.103,86.769-30.813,115.043-64.44
	C446.024,301.029,435.606,188.205,435.351,82.787z"/>
<path style="fill:#E23D17;" d="M371.042,390.202c-14.131,16.815-31.132,31.649-50.477,42.921
	c-19.334,11.272-41.032,18.973-64.567,21.522c-26.415-2.859-50.508-12.211-71.555-25.806c3.505,1.387,7.069,2.659,10.691,3.808
	c19.867,6.305,41.266,6.416,61.158,0.189c12.094-3.786,23.552-8.941,34.287-15.197c19.344-11.272,36.335-26.106,50.477-42.921
	c74.105-88.123,64.804-199.347,64.33-303.687c9.425,2.054,18.24,4.325,26.333,6.833c2.158,0.671,3.623,2.663,3.634,4.924
	C435.609,188.202,446.025,301.027,371.042,390.202z"/>
<path style="fill:#FFDBA9;" d="M347.567,226.666l-4.225-18.707c-0.465-2.057-2.376-3.455-4.477-3.275l-44.53,3.817
	c-10.992,0.942-20.181-8.247-19.239-19.239l3.817-44.53c0.18-2.101-1.218-4.012-3.275-4.477l-18.712-4.225
	c-0.612-0.138-1.247-0.138-1.859,0l-18.707,4.225c-2.057,0.464-3.455,2.376-3.275,4.477l3.817,44.53
	c0.942,10.992-8.247,20.181-19.239,19.239l-44.53-3.817c-2.101-0.18-4.012,1.218-4.477,3.275l-4.225,18.707
	c-0.138,0.612-0.138,1.247,0,1.859l4.225,18.712c0.464,2.057,2.376,3.455,4.477,3.275l44.53-3.817
	c10.992-0.942,20.181,8.247,19.239,19.239l-3.817,44.53c-0.18,2.101,1.218,4.012,3.275,4.477l18.707,4.225
	c0.612,0.138,1.247,0.138,1.859,0l18.712-4.225c2.057-0.464,3.455-2.376,3.275-4.477l-3.817-44.53
	c-0.942-10.992,8.247-20.181,19.239-19.239l44.53,3.817c2.101,0.18,4.012-1.218,4.477-3.275l4.225-18.712
	C347.705,227.913,347.705,227.278,347.567,226.666z"/>
<g>
</g>
<g>
</g>
<g>
</g>
<g>
</g>
<g>
</g>
<g>
</g>
<g>
</g>
<g>
</g>
<g>
</g>
<g>
</g>
<g>
</g>
<g>
</g>
<g>
</g>
<g>
</g>
<g>
</g>
</svg>
